<?xml version="1.0" standalone="no"?>
<!DOCTYPE svg PUBLIC "-//W3C//DTD SVG 20010904//EN"
 "http://www.w3.org/TR/2001/REC-SVG-20010904/DTD/svg10.dtd">
<svg version="1.0" xmlns="http://www.w3.org/2000/svg"
 width="200.000000pt" height="200.000000pt" viewBox="0 0 200.000000 200.000000"
 preserveAspectRatio="xMidYMid meet">
<metadata>
Created by potrace 1.16, written by Peter Selinger 2001-2019
</metadata>
<g transform="translate(0.000000,200.000000) scale(0.100000,-0.100000)"
fill="#000000" stroke="none">
<path d="M994 1793 c-48 -52 -16 -130 49 -120 33 5 42 2 160 -52 37 -17 70
-31 74 -31 3 0 29 -11 57 -25 28 -14 66 -29 84 -34 32 -10 33 -9 54 37 11 26
27 59 34 74 20 37 17 66 -6 78 -34 18 -66 1 -61 -32 0 -5 -3 -8 -8 -8 -5 0
-11 -10 -13 -22 -4 -31 -31 -26 -148 29 -52 24 -97 45 -100 45 -36 10 -60 26
-64 44 -11 43 -78 53 -112 17z"/>
<path d="M1590 1790 c-15 -15 -20 -32 -19 -63 1 -32 -15 -79 -70 -207 -39 -90
-71 -174 -71 -185 0 -17 15 -28 78 -53 90 -38 98 -38 112 -13 21 40 12 58 -35
77 -25 9 -45 21 -45 25 0 5 25 69 55 142 41 96 64 139 87 158 60 50 33 139
-43 139 -16 0 -38 -9 -49 -20z"/>
<path d="M1230 1774 c-6 -14 -10 -31 -10 -38 0 -11 153 -86 174 -86 9 0 38 60
34 71 -4 12 -154 79 -175 79 -7 0 -18 -12 -23 -26z"/>
<path d="M1063 1612 c-7 -4 -15 -22 -19 -38 -6 -29 -3 -32 45 -53 l51 -22 -16
-37 c-8 -20 -36 -86 -61 -146 -26 -65 -55 -117 -69 -128 -18 -15 -24 -29 -24
-57 0 -47 24 -71 72 -71 48 0 70 26 67 81 -2 35 12 80 69 217 39 95 69 178 66
185 -3 8 -40 28 -82 45 -85 36 -82 35 -99 24z"/>
<path d="M1614 1524 c-29 -72 -46 -109 -56 -127 -11 -23 -11 -22 34 -41 l36
-15 21 44 c12 25 21 51 21 58 0 7 7 22 15 33 20 26 19 61 -2 67 -10 2 -26 8
-36 12 -13 6 -20 -1 -33 -31z"/>
<path d="M1030 1498 c-47 -119 -60 -153 -60 -159 0 -12 71 -32 79 -23 6 7 42
95 47 114 0 3 6 18 13 34 6 16 10 30 9 31 -13 10 -50 25 -63 25 -8 0 -20 -10
-25 -22z"/>
<path d="M1223 1332 c-14 -9 -73 -137 -73 -158 0 -31 77 -47 86 -16 3 9 10 25
15 34 5 10 9 25 9 34 0 9 6 14 13 11 7 -3 75 -31 151 -63 100 -43 141 -65 146
-80 18 -47 105 -50 129 -5 30 56 -5 111 -71 111 -36 0 -101 21 -183 60 -61 29
-189 80 -200 80 -5 0 -15 -4 -22 -8z"/>
<path d="M1260 1190 c-7 -16 -10 -36 -7 -43 5 -13 149 -77 173 -77 12 0 34 42
34 64 0 11 -160 87 -181 86 -4 0 -12 -13 -19 -30z"/>
<path d="M807 914 c-4 -4 -7 -74 -7 -154 0 -167 2 -173 73 -174 41 -1 42 -1
45 37 3 32 0 37 -17 37 -19 0 -21 7 -23 128 l-3 127 -30 3 c-17 2 -34 0 -38
-4z"/>
<path d="M286 884 c-10 -27 -7 -264 4 -285 12 -21 50 -25 68 -7 7 7 12 27 12
45 0 29 3 33 28 33 23 0 31 -7 47 -42 22 -47 48 -58 79 -35 19 14 19 15 1 66
-15 40 -16 54 -7 63 15 15 15 89 0 123 -18 41 -57 55 -146 55 -64 0 -81 -3
-86 -16z"/>
<path d="M593 800 c-41 -25 -53 -48 -53 -104 0 -64 38 -106 101 -113 78 -9
139 43 139 118 0 92 -107 148 -187 99z"/>
<path d="M1058 809 c-15 -8 -18 -25 -18 -107 0 -104 7 -122 46 -122 32 0 43
19 46 85 3 56 4 60 28 60 24 0 25 -4 28 -60 4 -69 15 -87 51 -83 25 3 26 5 29
85 3 78 1 83 -25 113 -28 31 -37 34 -113 29 -8 0 -24 2 -35 5 -11 3 -28 1 -37
-5z"/>
<path d="M1365 810 c-11 -4 -30 -19 -43 -32 -67 -72 -11 -197 83 -186 38 4 46
-5 18 -21 -12 -6 -26 -5 -45 5 -25 13 -29 13 -48 -6 -11 -11 -20 -27 -20 -35
0 -35 105 -59 153 -34 50 26 57 45 57 181 l0 128 -25 6 c-14 3 -31 2 -38 -4
-7 -5 -21 -6 -32 -1 -25 10 -35 10 -60 -1z"/>
<path d="M936 795 c-10 -27 -7 -175 4 -196 12 -22 52 -25 69 -5 8 9 11 48 9
112 l-3 99 -36 3 c-26 2 -38 -1 -43 -13z"/>
<path d="M1630 467 l0 -55 -40 5 c-35 5 -43 2 -75 -30 -29 -29 -35 -42 -35
-76 0 -50 20 -92 52 -109 13 -7 54 -11 98 -10 l75 3 0 160 0 160 -37 3 -38 3
0 -54z"/>
<path d="M733 503 c-10 -3 -13 -45 -13 -159 l0 -155 38 3 c35 3 37 5 40 40 3
35 6 38 33 38 25 0 32 -6 45 -39 18 -46 34 -55 69 -39 29 13 32 36 9 79 -14
28 -14 34 1 66 29 61 2 133 -61 159 -32 13 -135 18 -161 7z"/>
<path d="M1004 386 c-29 -29 -34 -41 -34 -80 0 -38 6 -52 33 -81 79 -86 207
-34 207 85 0 34 -6 48 -34 76 -30 30 -40 34 -86 34 -46 0 -56 -4 -86 -34z"/>
<path d="M1279 405 c-64 -34 -73 -132 -19 -186 27 -28 32 -29 112 -26 l83 2 3
99 c2 64 -1 103 -9 112 -14 17 -51 18 -66 3 -8 -8 -13 -8 -17 0 -10 15 -56 13
-87 -4z"/>
</g>
</svg>
